<svg width="24" height="24" viewBox="0 0 24 24" fill="none" xmlns="http://www.w3.org/2000/svg">
    <path d="M3.5 6.5L4 6H5V18H4L3.5 17.5L3 17V7L3.5 6.5Z" fill="#828282"/>
    <path d="M1 11L2 10V14L1 13V11Z" fill="#828282"/>
    <path d="M22 10L23 11V13L22 14V10Z" fill="#828282"/>
    <path d="M19 6H20L20.5 6.5L21 7V17L20.5 17.5L20 18H19V6Z" fill="#828282"/>
    <path d="M9 11H15V13H9V11Z" fill="#828282"/>
    <path d="M6 6H7L7.5 6.5L8 7V17L7.5 17.5L7 18H6V6Z" fill="#828282"/>
    <path d="M16.5 6.5L17 6H18V18H17L16.5 17.5L16 17V7L16.5 6.5Z" fill="#828282"/>
</svg>
