<svg width="24" height="24" viewBox="0 0 24 24" fill="none" xmlns="http://www.w3.org/2000/svg">
    <path d="M4 17H10V19H6C4.89543 19 4 18.1046 4 17V17Z" fill="#828282"/>
    <path d="M4 8C4 6.89543 4.89543 6 6 6V6V17H4V8Z" fill="#828282"/>
    <path d="M6 6H18C19.1046 6 20 6.89543 20 8V8H6V6Z" fill="#828282"/>
    <path d="M18 8H20V17C20 18.1046 19.1046 19 18 19V19V8Z" fill="#828282"/>
    <path d="M15 17H18V19H15V17Z" fill="#828282"/>
    <path d="M13 18L15 16V20L13 18Z" fill="#828282"/>
</svg>
